<svg xmlns="http://www.w3.org/2000/svg" width="13" height="19" viewBox="0 0 13 19">
  <g id="다각형_1" data-name="다각형 1" transform="translate(13) rotate(90)" fill="#fff">
    <path d="M 15.06134986877441 12.49999618530273 L 3.938649892807007 12.49999618530273 C 3.36217999458313 12.49999618530273 2.862200021743774 12.19313621520996 2.601200103759766 11.67913627624512 C 2.340199947357178 11.16514682769775 2.387439966201782 10.58040618896484 2.727570056915283 10.11497688293457 L 8.288920402526855 2.504716634750366 C 8.574520111083984 2.113886594772339 9.015939712524414 1.889736533164978 9.5 1.889736533164978 C 9.984060287475586 1.889736533164978 10.42547988891602 2.113886594772339 10.71107959747314 2.504716634750366 L 16.27243041992188 10.11497688293457 C 16.6125602722168 10.58040618896484 16.65979957580566 11.16514682769775 16.39879989624023 11.67913627624512 C 16.1378002166748 12.19313621520996 15.63782024383545 12.49999618530273 15.06134986877441 12.49999618530273 Z" stroke="none"/>
    <path d="M 9.5 2.389736175537109 C 9.177289962768555 2.389736175537109 8.883009910583496 2.539166450500488 8.692609786987305 2.799726486206055 L 3.131259918212891 10.40998649597168 C 2.904510498046875 10.72027683258057 2.873020172119141 11.1100959777832 3.047019958496094 11.45275688171387 C 3.221019744873047 11.79542636871338 3.554340362548828 11.99999618530273 3.938650131225586 11.99999618530273 L 15.06134986877441 11.99999618530273 C 15.44565963745117 11.99999618530273 15.77898025512695 11.79541683197021 15.95298004150391 11.45275688171387 C 16.12697982788086 11.1100959777832 16.09548950195312 10.72026634216309 15.86874008178711 10.40998649597168 L 10.3073902130127 2.799716949462891 C 10.1169900894165 2.539166450500488 9.822710037231445 2.389736175537109 9.5 2.389736175537109 M 9.500003814697266 1.389738082885742 C 10.10765933990479 1.389738082885742 10.71531009674072 1.663056373596191 11.11478042602539 2.209696769714355 L 16.6761302947998 9.819967269897461 C 17.64179039001465 11.14139652252197 16.6980094909668 12.99999618530273 15.06134986877441 12.99999618530273 L 3.938650131225586 12.99999618530273 C 2.301979064941406 12.99999618530273 1.358209609985352 11.14139652252197 2.323869705200195 9.819967269897461 L 7.885219573974609 2.20970630645752 C 8.284689903259277 1.663061141967773 8.892349243164062 1.389738082885742 9.500003814697266 1.389738082885742 Z" stroke="none" fill="#3489f8"/>
  </g>
</svg>
